<svg width="384" height="438" viewBox="0 0 384 438" fill="none"
    xmlns="http://www.w3.org/2000/svg">
    <path d="M383.249 45.455V437.57C328.184 388.909 345.795 405.017 281.831 345.552L286 385.987H45.557C20.859 385.987 0.750999 365.881 0.750999 340.961V45.455C0.750999 20.538 20.858 0.429993 45.557 0.429993H338.44C363.14 0.429993 383.249 20.538 383.249 45.455Z" fill="white"/>
    <path d="M289.481 125.233C258.007 101.628 228.063 102.283 228.063 102.283L225.003 105.781C262.16 117.146 279.428 133.539 279.428 133.539C227.507 105.083 166.518 105.079 116.155 127.201C108.067 130.916 103.259 133.539 103.259 133.539C103.259 133.539 121.401 116.272 160.744 104.907L158.559 102.283C158.559 102.283 128.614 101.628 97.14 125.233C97.14 125.233 65.666 182.28 65.666 252.659C65.666 252.659 84.027 284.351 132.329 285.882C132.329 285.882 140.417 276.048 146.974 267.74C119.215 259.434 108.725 241.951 108.725 241.951C111.94 244.199 117.242 247.119 117.686 247.414C154.578 268.076 206.981 274.844 254.074 255.064C261.722 252.223 270.248 248.069 279.209 242.168C279.209 242.168 268.28 260.092 239.647 268.178C246.206 276.483 254.074 285.881 254.074 285.881C302.378 284.351 320.955 252.658 320.955 252.658C320.955 182.28 289.481 125.233 289.481 125.233ZM152.438 232.333C140.198 232.333 130.143 221.405 130.143 208.071C130.143 194.738 139.979 183.81 152.438 183.81C164.896 183.81 174.951 194.738 174.732 208.071C174.732 221.405 164.896 232.333 152.438 232.333ZM232.216 232.333C219.977 232.333 209.922 221.405 209.922 208.071C209.922 194.738 219.758 183.81 232.216 183.81C244.675 183.81 254.511 194.738 254.511 208.071C254.511 221.405 244.675 232.333 232.216 232.333Z" fill="black"/>
</svg>
