<svg width="460" height="450" viewBox="0 0 460 450" fill="none"
    xmlns="http://www.w3.org/2000/svg">
    <path d="M153.858 361.884C153.858 363.739 151.725 365.223 149.036 365.223C145.974 365.5 143.843 364.018 143.843 361.884C143.843 360.03 145.975 358.544 148.666 358.544C151.448 358.267 153.858 359.75 153.858 361.884ZM125.017 357.709C124.368 359.566 126.222 361.697 129.004 362.253C131.415 363.181 134.198 362.253 134.754 360.4C135.312 358.544 133.549 356.412 130.767 355.576C128.355 354.929 125.666 355.855 125.017 357.709ZM166.008 356.133C163.319 356.783 161.464 358.544 161.741 360.677C162.02 362.531 164.431 363.74 167.214 363.09C169.904 362.44 171.758 360.677 171.48 358.823C171.201 357.06 168.698 355.855 166.008 356.133ZM227.032 0.747009C98.398 0.747009 0.000976562 98.403 0.000976562 227.038C0.000976562 329.889 64.733 417.9 157.198 448.877C169.069 451.01 173.242 443.683 173.242 437.654C173.242 431.904 172.965 400.185 172.965 380.712C172.965 380.712 108.044 394.623 94.411 353.073C94.411 353.073 83.839 326.085 68.629 319.129C68.629 319.129 47.391 304.569 70.113 304.848C70.113 304.848 93.207 306.704 105.912 328.776C126.222 364.575 160.258 354.281 173.519 348.159C175.653 333.32 181.681 323.026 188.359 316.905C136.516 311.155 84.21 303.642 84.21 214.426C84.21 188.922 91.258 176.124 106.098 159.801C103.687 153.773 95.803 128.919 108.509 96.829C127.892 90.801 172.499 121.87 172.499 121.87C191.049 116.676 210.988 113.987 230.741 113.987C250.496 113.987 270.435 116.676 288.982 121.87C288.982 121.87 333.593 90.709 352.975 96.829C365.68 129.01 357.797 153.773 355.387 159.801C370.227 176.216 379.313 189.013 379.313 214.426C379.313 303.922 324.688 311.062 272.847 316.905C281.379 324.23 288.612 338.143 288.612 359.937C288.612 391.19 288.335 429.865 288.335 437.468C288.335 443.496 292.601 450.823 304.379 448.691C397.121 417.901 459.999 329.889 459.999 227.039C459.999 98.403 355.665 0.747009 227.032 0.747009ZM90.146 320.614C88.94 321.541 89.218 323.675 90.793 325.434C92.277 326.919 94.41 327.567 95.616 326.364C96.821 325.434 96.543 323.303 94.967 321.541C93.484 320.057 91.352 319.408 90.146 320.614ZM80.129 313.102C79.481 314.307 80.407 315.79 82.263 316.718C83.746 317.647 85.602 317.367 86.251 316.069C86.899 314.864 85.973 313.381 84.118 312.452C82.263 311.895 80.777 312.174 80.129 313.102ZM110.178 346.116C108.695 347.322 109.251 350.105 111.383 351.866C113.516 354 116.205 354.279 117.411 352.793C118.616 351.589 118.06 348.806 116.205 347.045C114.165 344.912 111.383 344.633 110.178 346.116ZM99.605 332.485C98.121 333.411 98.121 335.822 99.605 337.955C101.089 340.089 103.593 341.016 104.798 340.089C106.281 338.883 106.281 336.472 104.798 334.339C103.5 332.207 101.09 331.278 99.605 332.485Z" fill="white"/>
</svg>
