<svg width="460" height="374" viewBox="0 0 460 374" fill="none"
    xmlns="http://www.w3.org/2000/svg">
    <path d="M412.717 93.307C413.009 97.395 413.009 101.481 413.009 105.566C413.009 230.2 318.148 373.803 144.772 373.803C91.358 373.803 41.74 358.335 0.000976562 331.482C7.58898 332.356 14.886 332.648 22.767 332.648C66.84 332.648 107.412 317.764 139.81 292.372C98.363 291.495 63.629 264.35 51.663 226.989C57.501 227.864 63.338 228.448 69.468 228.448C77.933 228.448 86.399 227.28 94.278 225.239C51.081 216.481 18.681 178.537 18.681 132.712V131.545C31.231 138.55 45.827 142.928 61.294 143.512C35.901 126.582 19.265 97.686 19.265 64.996C19.265 47.481 23.934 31.43 32.107 17.419C78.516 74.627 148.276 111.988 226.498 116.074C225.04 109.069 224.163 101.774 224.163 94.475C224.163 42.521 266.195 0.197998 318.44 0.197998C345.585 0.197998 370.102 11.581 387.324 29.969C408.631 25.884 429.06 18.002 447.158 7.203C440.153 29.095 425.267 47.482 405.712 59.157C424.685 57.115 443.073 51.859 460.001 44.563C447.158 63.243 431.104 79.88 412.717 93.307Z" fill="white"/>
</svg>