<svg width="460" height="460" viewBox="0 0 460 460" fill="none"
    xmlns="http://www.w3.org/2000/svg">
    <path d="M103.213 143.75H0.623001V459.999H103.213V143.75Z" fill="white"/>
    <path d="M382.65 147.458C381.558 147.117 380.527 146.743 379.382 146.421C378.001 146.108 376.628 145.844 375.222 145.621C369.779 144.526 363.808 143.75 356.814 143.75C297.009 143.75 259.068 187.367 246.576 204.211V143.75H143.986V459.999H246.574V287.501C246.574 287.501 324.099 179.228 356.814 258.747V459.999H459.377V246.588C459.377 198.804 426.717 158.986 382.65 147.458Z" fill="white"/>
    <path d="M50.802 100.626C78.51 100.626 100.978 78.104 100.978 50.313C100.978 22.528 78.509 0.000999451 50.802 0.000999451C23.092 0.000999451 0.623001 22.527 0.623001 50.313C0.623001 78.103 23.092 100.626 50.802 100.626Z" fill="white"/>
</svg>
